<svg id="Layer_1" data-name="Layer 1" xmlns="http://www.w3.org/2000/svg" viewBox="0 0 380.2 109"><defs><style>.cls-1,.cls-2{fill:#231f20;}.cls-2{stroke:#231f20;stroke-miterlimit:10;}</style></defs><title>logo_welted_2</title><path class="cls-1" d="M187.8,71v.7h-1.9l-24.1,66L144,88.1l-18.5,50.6-24.1-67h-2v-.8h16.5v.8h-2.1l16.6,51,13.1-36-5.3-15h-2.8v-.8h16.4v.7h-1.9v.2l16.6,50.8,18.6-51h-1.8V71Zm-26.3,67.7.3-1,.4,1Z" transform="translate(-95.3 -70.6)"/><path class="cls-1" d="M235,70.6v2.5h-.7V71.5H209.9v33.2H230v-1.2h.8v3.3H230v-1.1H209.9v32.2h24.4v-1.8h.7v2.7H196.9v-.9h2.3V71.5h-2.3v-.9Z" transform="translate(-95.3 -70.6)"/><path class="cls-1" d="M284.8,138.7H246.4v-.8h2.3V71.6h-2.3v-.8h15.4v.8h-2.4v66.3h24.7v-2.2h.7Z" transform="translate(-95.3 -70.6)"/><path class="cls-1" d="M354,70.8v3.3h-.7V71.6H330.9v66.3h2.5v.8h-16v-.8h2.4V71.6H297.1v2.5h-.7V70.8Z" transform="translate(-95.3 -70.6)"/><path class="cls-1" d="M402.6,70.6v2.5H402V71.5H377.6v33.2h20.1v-1.2h.8v3.3h-.8v-1.1H377.6v32.2H402v-1.8h.6v2.7h-38v-.9h2.3V71.5h-2.3v-.9Z" transform="translate(-95.3 -70.6)"/><path class="cls-1" d="M469.6,104.9a34.5,34.5,0,0,1-32.5,33.8H412.2v-.8h2.4V71.6h-2.4v-.9H437C455,71.6,468.7,86.3,469.6,104.9Zm-11.8.2c0-15.3-2.3-31.8-21.5-33.5h-11v66.3h10.6C454.4,138.2,457.8,120.2,457.8,105.1Z" transform="translate(-95.3 -70.6)"/><line class="cls-2" y1="78.2" x2="380.2" y2="78.2"/><path class="cls-1" d="M96,178.3h2.1V159.6H96v-.4h4.4v10.1h.1a3.8,3.8,0,0,1,1.3-1.8,3.6,3.6,0,0,1,2.4-.7,4.2,4.2,0,0,1,2.2.5,4.6,4.6,0,0,1,1.8,1.3,6.2,6.2,0,0,1,1.2,1.9,5.9,5.9,0,0,1,.5,2.3,6.4,6.4,0,0,1-.5,2.4,6.3,6.3,0,0,1-1.3,2,5.5,5.5,0,0,1-1.9,1.4,5.4,5.4,0,0,1-2.2.5,4.1,4.1,0,0,1-1.6-.3l-1-.8a2.4,2.4,0,0,1-.6-.9,3,3,0,0,1-.4-.8h0v2.4H96Zm11.2-5.8a13.8,13.8,0,0,0-.2-2.2,4.3,4.3,0,0,0-.4-1.7,3.6,3.6,0,0,0-1-1.1,3.3,3.3,0,0,0-1.5-.4,3.1,3.1,0,0,0-1.7.4,4.1,4.1,0,0,0-1.5,1.7l-.3,1a6.1,6.1,0,0,0-.1,1.4,9.7,9.7,0,0,0-.1,1.8,11,11,0,0,0,.2,1.8,4.2,4.2,0,0,0,.5,1.7,2.7,2.7,0,0,0,1,1.3,3.6,3.6,0,0,0,1.9.5,3.9,3.9,0,0,0,1.7-.4,2.2,2.2,0,0,0,1-1.3,9,9,0,0,0,.4-1.9A21.7,21.7,0,0,0,107.2,172.5Z" transform="translate(-95.3 -70.6)"/><path class="cls-1" d="M116.6,178.3h2V167.5h-2v-.4h4.3v2.7h.1a9.2,9.2,0,0,1,.3-.9,6.1,6.1,0,0,1,.7-1,3.9,3.9,0,0,1,1-.8,3.3,3.3,0,0,1,1.5-.3l1.1.2a1.8,1.8,0,0,1,.7.5l.5.7a2.5,2.5,0,0,1,.1.8c0,.6-.1,1-.4,1.2a1.6,1.6,0,0,1-.9.3c-.8,0-1.2-.2-1.2-.7v-.4a.4.4,0,0,0,.1-.3l.2-.3v-.6a.8.8,0,0,0-.9-.9,1.8,1.8,0,0,0-.9.4,2,2,0,0,0-.9.9,5.3,5.3,0,0,0-.8,1.5,12.3,12.3,0,0,0-.2,2v6.2h2.3v.4h-6.7Z" transform="translate(-95.3 -70.6)"/><path class="cls-1" d="M144.3,178.4l-.9.5-1.1.2a2.5,2.5,0,0,1-1.9-.6,2.8,2.8,0,0,1-.8-1.5h-.1a1.5,1.5,0,0,1-.3.6l-.5.7-1.1.5a3.8,3.8,0,0,1-1.6.3,4.2,4.2,0,0,1-1.8-.3l-1.1-.6a4.1,4.1,0,0,1-.5-.9,2.8,2.8,0,0,1-.1-.9,2.4,2.4,0,0,1,.4-1.5,3,3,0,0,1,1-.9l1.3-.5,1.5-.5,1.5-.5a1.9,1.9,0,0,0,.9-.5,2,2,0,0,0,.4-.8,4.5,4.5,0,0,0,.1-1.3v-1.1a4.6,4.6,0,0,0-.3-.9,1.3,1.3,0,0,0-.7-.6l-1-.2a3.3,3.3,0,0,0-1.5.3,1.1,1.1,0,0,0-.6,1.1,2.8,2.8,0,0,0,.1.9,3.5,3.5,0,0,0,.1.6.9.9,0,0,1-.3.7l-.8.2a1.4,1.4,0,0,1-1.1-.3,1.9,1.9,0,0,1-.2-.8,2.7,2.7,0,0,1,.3-1.2,1.7,1.7,0,0,1,.8-.9,4,4,0,0,1,1.3-.7,5,5,0,0,1,1.8-.2,6.6,6.6,0,0,1,2.1.3,4.1,4.1,0,0,1,1.3.8,3.2,3.2,0,0,1,.8,1.2,5.9,5.9,0,0,1,.2,1.4v6.7a2.7,2.7,0,0,0,.2,1.1l.7.2h.6l.7-.3Zm-4.7-6.3h-.1c0,.2-.3.4-.9.7l-2,.8a2.2,2.2,0,0,0-1.3,1,2.5,2.5,0,0,0-.5,1.5,2.8,2.8,0,0,0,.1.9,1.3,1.3,0,0,0,.3.8,1,1,0,0,0,.6.5,1.6,1.6,0,0,0,1,.2,2.7,2.7,0,0,0,2.3-1.3,5.6,5.6,0,0,0,.4-1.2c0-.5.1-.9.1-1.2Z" transform="translate(-95.3 -70.6)"/><path class="cls-1" d="M149.7,178.3h2.1V159.6h-2.1v-.4h4.4v19.1h2.1v.4h-6.5Z" transform="translate(-95.3 -70.6)"/><path class="cls-1" d="M165.4,172v1.3a10.9,10.9,0,0,0,.1,1.8,4.8,4.8,0,0,0,.5,1.8,4.1,4.1,0,0,0,1,1.3,3.8,3.8,0,0,0,1.9.5,4,4,0,0,0,2-.4,3.6,3.6,0,0,0,1.2-.8,6.1,6.1,0,0,0,.7-1l.3-.9h.4a9.2,9.2,0,0,1-.3.9l-.7,1.1a4.8,4.8,0,0,1-1.4.9,4.8,4.8,0,0,1-2.2.5,7,7,0,0,1-2.5-.5,8.2,8.2,0,0,1-2-1.2,6.4,6.4,0,0,1-1.3-1.9,6.9,6.9,0,0,1-.4-2.5,4.6,4.6,0,0,1,.5-2.3,4.6,4.6,0,0,1,1.3-2,4.5,4.5,0,0,1,1.9-1.4,6.2,6.2,0,0,1,4-.3,5.1,5.1,0,0,1,1.6.9,4,4,0,0,1,1.2,1.6,4.9,4.9,0,0,1,.5,2.5Zm5.6-.4v-1.4a3.4,3.4,0,0,0-.2-1.5,1.9,1.9,0,0,0-.4-.9,1.4,1.4,0,0,0-.8-.5l-1-.2a3.3,3.3,0,0,0-1.5.4,2.2,2.2,0,0,0-.9,1,5.8,5.8,0,0,0-.5,1.4,10.1,10.1,0,0,0-.3,1.7Z" transform="translate(-95.3 -70.6)"/><path class="cls-1" d="M180,167.1h2.1v-3.5l.4.2h1.3l.6-.3v3.7h3.8v.4h-3.8v8.8a4.1,4.1,0,0,0,.1,1.2,2.9,2.9,0,0,0,.4.8l.5.3h.6a1.8,1.8,0,0,0,1.5-.7,3.5,3.5,0,0,0,.8-1.6l.3.2a1.9,1.9,0,0,1-.2.7,4.1,4.1,0,0,1-.5.9l-.9.6a2.5,2.5,0,0,1-1.3.3,3.9,3.9,0,0,1-2.8-.8,2.7,2.7,0,0,1-.8-2.2v-8.6H180Z" transform="translate(-95.3 -70.6)"/><path class="cls-1" d="M193.5,167.1h2.1v-3.5l.4.2h1.4c.2,0,.3-.1.5-.3v3.7h3.9v.4h-3.9v8.8a3.7,3.7,0,0,0,.2,1.2,1.5,1.5,0,0,0,.4.8.9.9,0,0,0,.5.3h.5a1.9,1.9,0,0,0,1.6-.7,3.3,3.3,0,0,0,.7-1.6l.4.2c-.1.2-.1.5-.3.7a2,2,0,0,1-.5.9l-.8.6a2.9,2.9,0,0,1-1.4.3,4.1,4.1,0,0,1-2.8-.8,3.1,3.1,0,0,1-.8-2.2v-8.6h-2.1Z" transform="translate(-95.3 -70.6)"/><path class="cls-1" d="M210.6,172a4.3,4.3,0,0,1-.1.5v.8c0,.6.1,1.2.1,1.8a7.8,7.8,0,0,0,.5,1.8,4.5,4.5,0,0,0,1.1,1.3,4.2,4.2,0,0,0,3.8.1,3.2,3.2,0,0,0,1.3-.8,2.7,2.7,0,0,0,.6-1,1.9,1.9,0,0,0,.3-.9h.4a2.3,2.3,0,0,1-.3.9,4.9,4.9,0,0,1-.7,1.1,4.3,4.3,0,0,1-1.3.9,4.8,4.8,0,0,1-2.2.5,6.6,6.6,0,0,1-2.5-.5,5.6,5.6,0,0,1-2-1.2,5,5,0,0,1-1.3-1.9,7,7,0,0,1-.5-2.5,5.9,5.9,0,0,1,.5-2.3,4.6,4.6,0,0,1,1.3-2,5.6,5.6,0,0,1,4.3-1.9,4.7,4.7,0,0,1,1.6.2,5.1,5.1,0,0,1,1.6.9,5.3,5.3,0,0,1,1.3,1.6,6.2,6.2,0,0,1,.5,2.5Zm5.5-.4c0-.2.1-.5.1-.7v-.7a6.1,6.1,0,0,0-.2-1.5,1.9,1.9,0,0,0-.5-.9,1.5,1.5,0,0,0-.7-.5l-1-.2a3.3,3.3,0,0,0-1.5.4,3.2,3.2,0,0,0-1,1,5.8,5.8,0,0,0-.5,1.4,9.9,9.9,0,0,0-.2,1.7Z" transform="translate(-95.3 -70.6)"/><path class="cls-1" d="M237.3,178.3h2V167.5h-2v-.4h4.3v2.8h.1a4.4,4.4,0,0,1,1.6-2.3,4.5,4.5,0,0,1,2.6-.8,4.8,4.8,0,0,1,2.4.6,2.9,2.9,0,0,1,1.3,2h.1a3.1,3.1,0,0,1,.5-1l.8-.8,1.2-.6,1.4-.2c2.7,0,4,1.3,4,4v7.5h2.1v.4h-6.5v-.4h2.1v-9.2a2,2,0,0,0-.5-1.4,2.2,2.2,0,0,0-1.4-.5l-1.3.2a3.3,3.3,0,0,0-2.1,2.1,4.1,4.1,0,0,0-.4,1.9v6.9h2.1v.4h-6.5v-.4h2.1v-8.8a2.5,2.5,0,0,0-.5-1.7,1.5,1.5,0,0,0-1.3-.6l-1.2.3a3.8,3.8,0,0,0-1.3.9,3.8,3.8,0,0,0-.9,1.5,6.1,6.1,0,0,0-.4,2.4v6h2v.4h-6.4Z" transform="translate(-95.3 -70.6)"/><path class="cls-1" d="M277.7,178.4l-.9.5-1.2.2a2.4,2.4,0,0,1-1.8-.6,2.8,2.8,0,0,1-.8-1.5h-.1a1.6,1.6,0,0,0-.3.6l-.6.7-1,.5a3.8,3.8,0,0,1-1.6.3,5,5,0,0,1-1.9-.3l-1-.6a2,2,0,0,1-.5-.9,2.8,2.8,0,0,1-.1-.9,2.4,2.4,0,0,1,.4-1.5,3.8,3.8,0,0,1,.9-.9l1.4-.5,1.5-.5,1.5-.5.9-.5a2,2,0,0,0,.4-.8,4.5,4.5,0,0,0,.1-1.3,3.7,3.7,0,0,0-.1-1.1,1.2,1.2,0,0,0-.3-.9.9.9,0,0,0-.6-.6l-1.1-.2a3.2,3.2,0,0,0-1.4.3,1.1,1.1,0,0,0-.6,1.1,2.8,2.8,0,0,0,.1.9,3.5,3.5,0,0,0,.1.6.9.9,0,0,1-.3.7l-.8.2c-.6,0-1-.1-1.1-.3a1.9,1.9,0,0,1-.2-.8,2.7,2.7,0,0,1,.3-1.2,2,2,0,0,1,.7-.9,4.6,4.6,0,0,1,1.4-.7,5,5,0,0,1,1.8-.2,6.6,6.6,0,0,1,2.1.3,4.1,4.1,0,0,1,1.3.8,2.1,2.1,0,0,1,.7,1.2,3.2,3.2,0,0,1,.3,1.4v6.7c0,.5,0,.9.2,1.1l.7.2h.6l.6-.3Zm-4.8-6.3h0c0,.2-.3.4-.9.7l-2,.8a2.2,2.2,0,0,0-1.3,1,2,2,0,0,0-.5,1.5,2.8,2.8,0,0,0,.1.9,1.3,1.3,0,0,0,.3.8,1,1,0,0,0,.6.5,1.5,1.5,0,0,0,1,.2,2.7,2.7,0,0,0,2.3-1.3,2.7,2.7,0,0,0,.3-1.2,5.7,5.7,0,0,0,.1-1.2Z" transform="translate(-95.3 -70.6)"/><path class="cls-1" d="M291.1,159.2h4.4v19.1h2.1v.4h-4.4v-2.4h0a3,3,0,0,1-.4.8,2.4,2.4,0,0,1-.6.9l-1.1.8a3.3,3.3,0,0,1-1.5.3,5.9,5.9,0,0,1-2.3-.5,7,7,0,0,1-3.1-3.4,6.4,6.4,0,0,1-.5-2.4,5.9,5.9,0,0,1,.5-2.3,6.2,6.2,0,0,1,1.2-1.9,4.6,4.6,0,0,1,1.8-1.3,4.2,4.2,0,0,1,2.2-.5,3.6,3.6,0,0,1,2.4.7,4.6,4.6,0,0,1,1.3,1.8h.1v-9.7h-2.1Zm-4.7,13.3a21.7,21.7,0,0,0,.1,2.6,5.3,5.3,0,0,0,.4,1.9,2.2,2.2,0,0,0,1,1.3,3.9,3.9,0,0,0,1.7.4,3,3,0,0,0,1.8-.5,2.4,2.4,0,0,0,1.1-1.3,4.2,4.2,0,0,0,.5-1.7,11,11,0,0,0,.2-1.8c0-.7-.1-1.3-.1-1.8s-.1-1-.1-1.4l-.3-1a5.6,5.6,0,0,0-.5-.8,2.8,2.8,0,0,0-1-.9,3.1,3.1,0,0,0-1.7-.4,3.3,3.3,0,0,0-1.5.4,2.7,2.7,0,0,0-1,1.1,6.9,6.9,0,0,0-.5,1.7C286.5,170.9,286.4,171.7,286.4,172.5Z" transform="translate(-95.3 -70.6)"/><path class="cls-1" d="M306.8,172v1.3a10.9,10.9,0,0,0,.1,1.8,4.8,4.8,0,0,0,.5,1.8,4.1,4.1,0,0,0,1,1.3,3.8,3.8,0,0,0,1.9.5,4,4,0,0,0,2-.4,3.6,3.6,0,0,0,1.2-.8,6.1,6.1,0,0,0,.7-1l.3-.9h.4a4.6,4.6,0,0,0-.3.9l-.7,1.1a4.8,4.8,0,0,1-1.4.9,4.8,4.8,0,0,1-2.2.5,7,7,0,0,1-2.5-.5,8.2,8.2,0,0,1-2-1.2,6.4,6.4,0,0,1-1.3-1.9,6.9,6.9,0,0,1-.4-2.5,4.6,4.6,0,0,1,.5-2.3,5.7,5.7,0,0,1,3.2-3.4,6.2,6.2,0,0,1,4-.3,6.5,6.5,0,0,1,1.6.9,4,4,0,0,1,1.2,1.6,4.9,4.9,0,0,1,.5,2.5Zm5.6-.4v-1.4a3.4,3.4,0,0,0-.2-1.5,1.9,1.9,0,0,0-.4-.9,1.4,1.4,0,0,0-.8-.5l-1-.2a3.3,3.3,0,0,0-1.5.4,2.2,2.2,0,0,0-.9,1,5.8,5.8,0,0,0-.5,1.4,10.1,10.1,0,0,0-.3,1.7Z" transform="translate(-95.3 -70.6)"/><path class="cls-1" d="M334.2,172.9a4.8,4.8,0,0,1,.6-2.4,6.2,6.2,0,0,1,1.5-2,5.3,5.3,0,0,1,2-1.3,5.7,5.7,0,0,1,2.2-.4,6,6,0,0,1,2.2.4,6.3,6.3,0,0,1,2,1.3,6.2,6.2,0,0,1,1.5,2,5.1,5.1,0,0,1,0,4.8,6.6,6.6,0,0,1-1.4,2,6.9,6.9,0,0,1-2,1.3,6.4,6.4,0,0,1-2.3.5,5.9,5.9,0,0,1-2.3-.5,5.8,5.8,0,0,1-2-1.3,9.5,9.5,0,0,1-1.5-2A6,6,0,0,1,334.2,172.9Zm2.7,0a13,13,0,0,0,.3,3.1,5.4,5.4,0,0,0,.8,1.7,2.1,2.1,0,0,0,1.1.8l1.4.2,1.4-.2a2.1,2.1,0,0,0,1.1-.8,5.4,5.4,0,0,0,.8-1.7,13,13,0,0,0,.3-3.1,18.7,18.7,0,0,0-.2-2.7,7.5,7.5,0,0,0-.7-1.8,3.5,3.5,0,0,0-1.1-1,4.1,4.1,0,0,0-1.6-.3,3.8,3.8,0,0,0-1.6.3,2.7,2.7,0,0,0-1.1,1,7.5,7.5,0,0,0-.7,1.8A18.7,18.7,0,0,0,336.9,172.9Z" transform="translate(-95.3 -70.6)"/><path class="cls-1" d="M353.3,178.3h2.1V167.5h-2.1v-.4h2.1v-1.4a8.6,8.6,0,0,1,.1-1.7,5,5,0,0,1,.2-1.2l.4-.9.5-.7a8.7,8.7,0,0,1,1.7-1.6,4.6,4.6,0,0,1,2.3-.6l1.5.2a4.1,4.1,0,0,1,1.1.7,2.2,2.2,0,0,1,.5.8,1.3,1.3,0,0,1,.2.8,1.6,1.6,0,0,1-.3.9,1.1,1.1,0,0,1-1,.5l-.8-.2c-.3-.1-.4-.3-.4-.7a1.1,1.1,0,0,1,.3-.8,2.4,2.4,0,0,0,.2-.8.8.8,0,0,0-.5-.8,1.6,1.6,0,0,0-1-.2,2.5,2.5,0,0,0-1.9.9,5.2,5.2,0,0,0-.8,3.1v3.7H361v.4h-3.3v10.8h2.5v.4h-6.9Z" transform="translate(-95.3 -70.6)"/><path class="cls-1" d="M377.7,167.1h6.5v.4H382l3.5,8.5,3.6-8.5h-2.2v-.4H391v.4h-1.5l-5.1,12.1-4.9-12.1h-1.8Z" transform="translate(-95.3 -70.6)"/><path class="cls-1" d="M399.6,172v1.3a10.9,10.9,0,0,0,.1,1.8,4.8,4.8,0,0,0,.5,1.8,3,3,0,0,0,3,1.8,4.5,4.5,0,0,0,3.1-1.2,3,3,0,0,0,.7-1c.1-.4.3-.6.3-.9h.4a2.3,2.3,0,0,1-.3.9,4.9,4.9,0,0,1-.7,1.1,3.8,3.8,0,0,1-1.4.9,4.5,4.5,0,0,1-2.2.5,7,7,0,0,1-2.5-.5,6.2,6.2,0,0,1-1.9-1.2,5,5,0,0,1-1.3-1.9,7,7,0,0,1-.5-2.5,5.9,5.9,0,0,1,.5-2.3,4.6,4.6,0,0,1,1.3-2,5.2,5.2,0,0,1,1.9-1.4,6.2,6.2,0,0,1,4-.3,5.1,5.1,0,0,1,1.6.9,4,4,0,0,1,1.2,1.6,4.9,4.9,0,0,1,.5,2.5Zm5.6-.4v-1.4a6.6,6.6,0,0,0-.1-1.5,1.9,1.9,0,0,0-.5-.9,1.4,1.4,0,0,0-.8-.5l-.9-.2a3.3,3.3,0,0,0-1.5.4,3.2,3.2,0,0,0-1,1,5.8,5.8,0,0,0-.5,1.4,9.9,9.9,0,0,0-.2,1.7Z" transform="translate(-95.3 -70.6)"/><path class="cls-1" d="M414.5,178.3h2.1V159.6h-2.1v-.4h4.4v19.1H421v.4h-6.5Z" transform="translate(-95.3 -70.6)"/><path class="cls-1" d="M425.8,167.1h6.5v.4h-2.2l3.5,8.5,3.6-8.5H435v-.4h4.1v.4h-1.4l-5.1,12.1-5-12.1h-1.8Z" transform="translate(-95.3 -70.6)"/><path class="cls-1" d="M447.8,172v.5c0,.2-.1.5-.1.8a11,11,0,0,0,.2,1.8,4.8,4.8,0,0,0,.4,1.8,4.5,4.5,0,0,0,1.1,1.3,3.6,3.6,0,0,0,1.9.5,4,4,0,0,0,2-.4,3.6,3.6,0,0,0,1.2-.8,2.7,2.7,0,0,0,.6-1l.4-.9h.4a4.6,4.6,0,0,0-.3.9,5.9,5.9,0,0,1-.8,1.1,4.3,4.3,0,0,1-1.3.9,4.8,4.8,0,0,1-2.2.5,6.6,6.6,0,0,1-2.5-.5,6.7,6.7,0,0,1-2-1.2,5,5,0,0,1-1.3-1.9,7,7,0,0,1-.5-2.5,5.9,5.9,0,0,1,.5-2.3,5.8,5.8,0,0,1,1.3-2,6.2,6.2,0,0,1,1.9-1.4,5.2,5.2,0,0,1,2.4-.5,4.4,4.4,0,0,1,1.6.2,5.1,5.1,0,0,1,1.6.9,4.2,4.2,0,0,1,1.3,1.6,6.2,6.2,0,0,1,.5,2.5Zm5.5-.4a1.7,1.7,0,0,0,.1-.7v-.7a6.1,6.1,0,0,0-.2-1.5,1.9,1.9,0,0,0-.5-.9,1.2,1.2,0,0,0-.7-.5l-1-.2a3.3,3.3,0,0,0-1.5.4,2.2,2.2,0,0,0-.9,1,3.5,3.5,0,0,0-.6,1.4,9.9,9.9,0,0,0-.2,1.7Z" transform="translate(-95.3 -70.6)"/><path class="cls-1" d="M462.3,167.1h2.1v-3.5l.4.2h1.4a.5.5,0,0,0,.5-.3v3.7h3.9v.4h-3.9v8.8a3.7,3.7,0,0,0,.2,1.2,1.5,1.5,0,0,0,.4.8.9.9,0,0,0,.5.3h.6a1.8,1.8,0,0,0,1.5-.7,3.3,3.3,0,0,0,.7-1.6l.4.2a1.9,1.9,0,0,1-.2.7,4.1,4.1,0,0,1-.5.9l-.9.6a2.9,2.9,0,0,1-1.4.3,4.3,4.3,0,0,1-2.8-.8,3.1,3.1,0,0,1-.8-2.2v-8.6h-2.1Z" transform="translate(-95.3 -70.6)"/></svg>